<svg width="21" height="21" viewBox="0 0 21 21" fill="none" xmlns="http://www.w3.org/2000/svg">
<g id="icons/Eye on/Line">
<path id="Vector" d="M17.1112 9.3337C15.765 6.15818 13.2325 4.18787 10.5002 4.18787C7.76778 4.18787 5.23533 6.15818 3.88913 9.3337C3.85244 9.41913 3.8335 9.51133 3.8335 9.60453C3.8335 9.69774 3.85244 9.78994 3.88913 9.87537C5.23533 13.0509 7.76778 15.0212 10.5002 15.0212C13.2325 15.0212 15.765 13.0509 17.1112 9.87537C17.1479 9.78994 17.1668 9.69774 17.1668 9.60453C17.1668 9.51133 17.1479 9.41913 17.1112 9.3337ZM10.5002 13.667C8.38757 13.667 6.38826 12.1165 5.23533 9.60453C6.38826 7.09255 8.38757 5.54203 10.5002 5.54203C12.6128 5.54203 14.6121 7.09255 15.765 9.60453C14.6121 12.1165 12.6128 13.667 10.5002 13.667ZM10.5002 6.8962C9.97293 6.8962 9.45754 7.05504 9.01916 7.35264C8.58078 7.65023 8.2391 8.07322 8.03734 8.5681C7.83558 9.06298 7.78279 9.60754 7.88565 10.1329C7.9885 10.6583 8.24239 11.1408 8.6152 11.5196C8.98801 11.8984 9.463 12.1563 9.9801 12.2608C10.4972 12.3653 11.0332 12.3117 11.5203 12.1067C12.0074 11.9017 12.4237 11.5546 12.7166 11.1092C13.0096 10.6638 13.1659 10.1402 13.1659 9.60453C13.1659 8.88624 12.885 8.19736 12.3851 7.68945C11.8852 7.18154 11.2072 6.8962 10.5002 6.8962ZM10.5002 10.9587C10.2365 10.9587 9.97885 10.8793 9.75966 10.7305C9.54047 10.5817 9.36963 10.3702 9.26875 10.1228C9.16787 9.87531 9.14147 9.60303 9.1929 9.34035C9.24433 9.07767 9.37128 8.83638 9.55768 8.64699C9.74409 8.45761 9.98158 8.32864 10.2401 8.27639C10.4987 8.22414 10.7667 8.25095 11.0102 8.35345C11.2538 8.45594 11.4619 8.62951 11.6084 8.8522C11.7549 9.07489 11.833 9.3367 11.833 9.60453C11.833 9.96368 11.6926 10.3081 11.4426 10.5621C11.1927 10.816 10.8537 10.9587 10.5002 10.9587Z" fill="#B1B5C4"/>
</g>
</svg>
