<svg width="17" height="17" viewBox="0 0 17 17" fill="none" xmlns="http://www.w3.org/2000/svg">
<g id="fb">
<path id="Vector" d="M8.7769 14.784C8.7769 14.9663 8.92471 15.1149 9.10662 15.1059C12.5962 14.934 15.3726 12.0486 15.3726 8.51441C15.3726 4.86954 12.4196 1.91479 8.7769 1.91479C5.13417 1.91479 2.18115 4.86954 2.18115 8.51441C2.18115 11.5668 4.25214 14.1352 7.06486 14.8895C7.26625 14.9435 7.45775 14.7869 7.45775 14.5783V9.83433H6.79817C6.4339 9.83433 6.1386 9.53886 6.1386 9.17437C6.1386 8.80987 6.4339 8.51441 6.79817 8.51441H7.45775V7.19448C7.45775 6.10103 8.34362 5.2146 9.43647 5.2146H10.096C10.4603 5.2146 10.7556 5.51008 10.7556 5.87456C10.7556 6.23905 10.4603 6.53452 10.096 6.53452H9.43647C9.07219 6.53452 8.7769 6.83 8.7769 7.19448V8.51441H10.096C10.4603 8.51441 10.7556 8.80987 10.7556 9.17437C10.7556 9.53886 10.4603 9.83433 10.096 9.83433H8.7769V14.784Z" fill="#4776D0"/>
</g>
</svg>
