<svg width="14" height="11" viewBox="0 0 14 11" fill="none" xmlns="http://www.w3.org/2000/svg">
<g id="google/text">
<path id="Vector" d="M13.8194 1.48322C13.3289 1.6951 12.8061 1.83554 12.2612 1.90373C12.8218 1.57414 13.2497 1.05622 13.4509 0.431962C12.9282 0.738816 12.351 0.955563 11.736 1.07652C11.2397 0.556165 10.5323 0.233887 9.76056 0.233887C8.26333 0.233887 7.05796 1.43046 7.05796 2.89735C7.05796 3.10841 7.07609 3.31136 7.12062 3.50456C4.87229 3.3966 2.88285 2.3356 1.54639 0.719334C1.31306 1.11792 1.1762 1.57414 1.1762 2.06527C1.1762 2.98746 1.65851 3.80492 2.37745 4.27819C1.94296 4.27008 1.51671 4.14587 1.15559 3.95023C1.15559 3.95835 1.15559 3.9689 1.15559 3.97946C1.15559 5.27344 2.09301 6.34824 3.32229 6.59584C3.10216 6.6551 2.86224 6.68351 2.61325 6.68351C2.44011 6.68351 2.26532 6.67377 2.10125 6.63805C2.45165 7.69256 3.44596 8.46781 4.62825 8.49298C3.70814 9.20166 2.53987 9.62866 1.27514 9.62866C1.05336 9.62866 0.840642 9.61892 0.62793 9.59213C1.82588 10.3528 3.24562 10.7871 4.77665 10.7871C9.75314 10.7871 12.4739 6.72816 12.4739 3.20989C12.4739 3.09218 12.4698 2.97853 12.464 2.86569C13.0007 2.49065 13.4517 2.02225 13.8194 1.48322Z" fill="#01AEEF"/>
</g>
</svg>
